<svg id="calm-logo" xmlns="http://www.w3.org/2000/svg" width="152.541" height="48.342" viewBox="0 0 152.541 48.342">
  <g id="Group_2689" data-name="Group 2689" transform="translate(44.999 42.656)">
    <path id="Path_4359" data-name="Path 4359" d="M349.213,314.214v1.947h-1.025v-1.932l-2.169-3.588h1.1l1.617,2.689,1.632-2.689h1.009Z" transform="translate(-346.019 -310.562)" fill="#fff"/>
    <path id="Path_4360" data-name="Path 4360" d="M358.046,313.338a2.977,2.977,0,1,1,2.974,2.839A2.827,2.827,0,0,1,358.046,313.338Zm4.914,0a1.94,1.94,0,1,0-1.94,1.941A1.882,1.882,0,0,0,362.96,313.338Z" transform="translate(-351.394 -310.499)" fill="#fff"/>
    <path id="Path_4361" data-name="Path 4361" d="M376.987,313.275h.97v2.2a3.493,3.493,0,0,1-2.16.7,2.842,2.842,0,1,1,.016-5.678,2.852,2.852,0,0,1,2.216.9l-.647.632a2.049,2.049,0,0,0-1.523-.632,1.942,1.942,0,1,0-.007,3.882,2.23,2.23,0,0,0,1.135-.285Z" transform="translate(-357.998 -310.499)" fill="#fff"/>
    <path id="Path_4362" data-name="Path 4362" d="M389.838,314.884h-2.76l-.544,1.278h-1.057l2.485-5.521h1.009l2.492,5.521h-1.073Zm-.339-.805-1.041-2.413-1.033,2.413Z" transform="translate(-363.653 -310.562)" fill="#fff"/>
    <path id="Path_4363" data-name="Path 4363" d="M410.5,316.2l-.695-.67a2.792,2.792,0,0,1-1.854.662c-1.166,0-2.011-.607-2.011-1.474,0-.687.379-1.168,1.278-1.673a1.669,1.669,0,0,1-.614-1.215c0-.773.631-1.3,1.6-1.3.892,0,1.475.465,1.475,1.215,0,.568-.331.977-1.128,1.428l1.191,1.135a3.554,3.554,0,0,0,.308-.931l.8.26a3.8,3.8,0,0,1-.5,1.262l.694.663Zm-1.278-1.229-1.46-1.4c-.639.356-.859.647-.859,1.04,0,.458.441.773,1.119.773A1.851,1.851,0,0,0,409.22,314.968Zm-1.719-3.155c0,.245.1.425.5.82.638-.347.843-.575.843-.875,0-.316-.228-.529-.638-.529C407.761,311.228,407.5,311.473,407.5,311.813Z" transform="translate(-372.798 -310.512)" fill="#fff"/>
    <path id="Path_4364" data-name="Path 4364" d="M430.156,312.6c0,1.215-.9,1.964-2.349,1.964h-1.246v1.593h-1.027v-5.521h2.272C429.257,310.641,430.156,311.382,430.156,312.6Zm-1.033,0c0-.694-.465-1.1-1.364-1.1h-1.2V313.7h1.2C428.658,313.7,429.122,313.3,429.122,312.6Z" transform="translate(-381.556 -310.562)" fill="#fff"/>
    <path id="Path_4365" data-name="Path 4365" d="M439.086,310.641h1.024v5.521h-1.024Z" transform="translate(-387.612 -310.562)" fill="#fff"/>
    <path id="Path_4366" data-name="Path 4366" d="M447.764,310.641h1.024v4.653h2.887v.868h-3.911Z" transform="translate(-391.491 -310.562)" fill="#fff"/>
    <path id="Path_4367" data-name="Path 4367" d="M461.172,314.884h-2.76l-.544,1.278H456.81l2.486-5.521H460.3l2.492,5.521h-1.073Zm-.339-.805-1.041-2.413-1.033,2.413Z" transform="translate(-395.534 -310.562)" fill="#fff"/>
    <path id="Path_4368" data-name="Path 4368" d="M471.794,311.509h-1.829v-.868h4.685v.868h-1.83v4.653h-1.026Z" transform="translate(-401.413 -310.562)" fill="#fff"/>
    <path id="Path_4369" data-name="Path 4369" d="M487.03,315.3v.86h-4.14v-5.521h4.029v.859h-3v1.436h2.666v.843h-2.666V315.3Z" transform="translate(-407.189 -310.562)" fill="#fff"/>
    <path id="Path_4370" data-name="Path 4370" d="M494.233,315.515l.355-.8a3.053,3.053,0,0,0,1.821.607c.86,0,1.223-.308,1.223-.717,0-1.192-3.281-.411-3.281-2.461,0-.891.71-1.648,2.225-1.648a3.493,3.493,0,0,1,1.837.489l-.323.8a3.071,3.071,0,0,0-1.523-.433c-.852,0-1.2.331-1.2.749,0,1.175,3.273.41,3.273,2.437,0,.883-.718,1.64-2.232,1.64A3.562,3.562,0,0,1,494.233,315.515Z" transform="translate(-412.259 -310.499)" fill="#fff"/>
  </g>
  <g id="Group_2690" data-name="Group 2690" transform="translate(42.502 0)">
    <path id="Path_4371" data-name="Path 4371" d="M353.522,253.161a7.758,7.758,0,0,1,6.641,3.383l.059.086,2.5-1.7-.051-.084c-1.814-2.981-5.062-4.622-9.146-4.622-6.963,0-12.018,4.979-12.018,11.843,0,6.887,5.055,11.886,12.018,11.886,4.056,0,7.3-1.642,9.146-4.622l.051-.084-2.5-1.7-.059.085a7.742,7.742,0,0,1-6.641,3.341c-5.09,0-8.645-3.664-8.645-8.909S348.432,253.161,353.522,253.161Z" transform="translate(-341.504 -240.906)" fill="#fff"/>
    <path id="Path_4372" data-name="Path 4372" d="M400.284,250.227a14.784,14.784,0,0,0-9.476,3.145l-.067.058,1.517,2.512.093-.082a11.76,11.76,0,0,1,7.624-2.7c4.218,0,6.447,2.077,6.447,6.008v1.3h-7.238c-3.372,0-9.029.864-9.029,6.655,0,4.149,3.354,6.83,8.545,6.83,3.553,0,6.326-1.264,7.855-3.568v3.348h3.2V259.3C409.753,253.364,406.479,250.227,400.284,250.227Zm-1.1,21.059c-3.6,0-5.744-1.588-5.744-4.249,0-2.711,1.907-4.029,5.832-4.029h7.15v3.657A7.313,7.313,0,0,1,399.186,271.286Z" transform="translate(-363.248 -240.906)" fill="#fff"/>
    <rect id="Rectangle_1219" data-name="Rectangle 1219" width="3.329" height="32.83" transform="translate(57.204)" fill="#fff"/>
    <path id="Path_4373" data-name="Path 4373" d="M500.032,250.227c-4.039,0-7.354,1.73-9.134,4.755-1.412-3.069-4.326-4.755-8.233-4.755-3.7,0-6.664,1.465-8.382,4.134V250.4h-3.2v23.333h3.329V261.5c0-5.089,2.925-8.249,7.634-8.249,4.242,0,6.579,2.586,6.579,7.282v13.205h3.329V261.5c0-5.165,2.854-8.249,7.634-8.249,4.214,0,6.535,2.586,6.535,7.282v13.205h3.329V260.223C509.456,253.871,506.021,250.227,500.032,250.227Z" transform="translate(-399.417 -240.906)" fill="#fff"/>
  </g>
  <path id="Path_4374" data-name="Path 4374" d="M275.5,285.206H264.658V275.134a11.89,11.89,0,0,0,9.677,5.632v-6.157l-8.282-8.284.822-.821,7.46,7.461v-8.644l-5.412-5.413.821-.821,4.591,4.592V252.334H275.5v10.344l4.591-4.591.821.821-5.412,5.413v8.644l7.462-7.461.821.821-8.283,8.284Zm-10.839-43.825v20.164a41.84,41.84,0,0,1,10.257-15.091c4.9,4.636,9.634,11.416,11.295,18.467.532,2.257,1.113,5.854-.484,9.206a11.78,11.78,0,0,1-9.068,6.525v4.555h16.855V241.381Z" transform="translate(-264.658 -236.953)" fill="#fff"/>
</svg>
