<svg xmlns="http://www.w3.org/2000/svg" width="223" height="39.437" viewBox="0 0 223 39.437">
  <g id="Logo" transform="translate(0 0)">
    <g id="Group_2879" data-name="Group 2879" transform="translate(37.512 33.011)">
      <path id="Path_4503" data-name="Path 4503" d="M227.286,264.323h.938V261.8h3.134v-.812h-3.134v-2.128h3.517v-.821h-4.456Z" transform="translate(-227.286 -257.969)" fill="#adafb1"/>
      <rect id="Rectangle_1302" data-name="Rectangle 1302" width="0.938" height="6.283" transform="translate(13.103 0.072)" fill="#adafb1"/>
      <path id="Path_4504" data-name="Path 4504" d="M324.768,258.861h2.142v5.462h.93v-5.462h2.142v-.821h-5.214Z" transform="translate(-302.279 -257.969)" fill="#adafb1"/>
      <path id="Path_4505" data-name="Path 4505" d="M388.5,262.649l-3.708-4.6-.007-.009h-.766v6.283h.938v-4.609l3.709,4.6.007.009h.766V258.04H388.5Z" transform="translate(-347.865 -257.969)" fill="#adafb1"/>
      <path id="Path_4506" data-name="Path 4506" d="M448.855,261.534h3.134v-.8h-3.134v-1.87h3.517v-.821h-4.456v6.283H452.5V263.5h-3.642Z" transform="translate(-397.018 -257.969)" fill="#adafb1"/>
      <path id="Path_4507" data-name="Path 4507" d="M503.915,260.548c-.852-.206-1.588-.384-1.588-1.05,0-.6.559-.966,1.494-.966a3.209,3.209,0,0,1,1.7.5l.023.015.312-.755-.015-.01a3.7,3.7,0,0,0-2.022-.557c-1.781,0-2.415.933-2.415,1.805,0,1.3,1.171,1.581,2.205,1.831.848.205,1.58.382,1.58,1.047,0,.6-.555.939-1.522.939a3.208,3.208,0,0,1-2.047-.716l-.023-.021-.351.738.012.011a3.723,3.723,0,0,0,2.408.79,2.9,2.9,0,0,0,1.844-.534,1.6,1.6,0,0,0,.6-1.262C506.112,261.079,504.945,260.8,503.915,260.548Z" transform="translate(-438.048 -257.729)" fill="#adafb1"/>
      <path id="Path_4508" data-name="Path 4508" d="M558.706,260.548c-.852-.206-1.588-.384-1.588-1.05,0-.6.559-.966,1.495-.966a3.209,3.209,0,0,1,1.7.5l.023.015.312-.755-.015-.01a3.7,3.7,0,0,0-2.022-.557c-1.781,0-2.415.933-2.415,1.805,0,1.3,1.171,1.581,2.2,1.831.848.205,1.58.382,1.58,1.047,0,.6-.555.939-1.522.939a3.207,3.207,0,0,1-2.047-.716l-.023-.021-.351.738.012.011a3.724,3.724,0,0,0,2.408.79,2.9,2.9,0,0,0,1.844-.534,1.6,1.6,0,0,0,.6-1.262C560.9,261.079,559.736,260.8,558.706,260.548Z" transform="translate(-480.198 -257.729)" fill="#adafb1"/>
      <path id="Path_4509" data-name="Path 4509" d="M646.87,258.568a2.282,2.282,0,0,1,1.742.732l.016.017.612-.593-.014-.016a3.133,3.133,0,0,0-2.392-.979,3.409,3.409,0,0,0-2.385.91,3.268,3.268,0,0,0,0,4.606,3.394,3.394,0,0,0,2.377.91,3.145,3.145,0,0,0,2.4-.988l.014-.016-.612-.593-.016.017a2.4,2.4,0,1,1-1.742-4.006Z" transform="translate(-547.48 -257.729)" fill="#adafb1"/>
      <path id="Path_4510" data-name="Path 4510" d="M702.967,258.04h-.938v6.283h4.322V263.5h-3.383Z" transform="translate(-592.507 -257.969)" fill="#adafb1"/>
      <path id="Path_4511" data-name="Path 4511" d="M753.513,261.573c0,1.315-.587,1.982-1.745,1.982s-1.736-.667-1.736-1.982V258.04h-.938v3.569a2.668,2.668,0,1,0,5.33,0V258.04h-.912Z" transform="translate(-628.715 -257.968)" fill="#adafb1"/>
      <path id="Path_4512" data-name="Path 4512" d="M813.29,261.06a1.511,1.511,0,0,0,.8-1.385c0-1.039-.825-1.635-2.263-1.635H809v6.283h3c1.558,0,2.416-.606,2.416-1.707A1.533,1.533,0,0,0,813.29,261.06Zm-1.543-.3h-1.807v-1.95h1.807c.919,0,1.405.337,1.405.975S812.666,260.757,811.747,260.757Zm1.727,1.787c0,.68-.492,1.011-1.5,1.011h-2.03v-2.03h2.03C812.981,261.525,813.473,261.859,813.473,262.544Z" transform="translate(-674.801 -257.968)" fill="#adafb1"/>
    </g>
    <g id="Group_2880" data-name="Group 2880" transform="translate(37.512)">
      <rect id="Rectangle_1303" data-name="Rectangle 1303" width="2.565" height="22.711" transform="translate(22.659 0.193)" fill="#de3726"/>
      <path id="Path_4513" data-name="Path 4513" d="M397.975,133.32l-14.387-18.084-.027-.034h-2.1v22.711h2.565V119.8l14.354,18.083.027.034h2.1V115.2h-2.533Z" transform="translate(-345.894 -115.009)" fill="#de3726"/>
      <path id="Path_4514" data-name="Path 4514" d="M511.382,127.483h11.675v-2.206H511.382V117.44h13.094V115.2H508.817v22.711H524.96v-2.238H511.382Z" transform="translate(-443.869 -115.009)" fill="#de3726"/>
      <path id="Path_4515" data-name="Path 4515" d="M611.069,116.666a8.811,8.811,0,0,1,6.612,2.645l.063.064,1.64-1.636-.057-.063A11.039,11.039,0,0,0,611,114.364a12.143,12.143,0,0,0-8.532,3.28,11.775,11.775,0,0,0,0,16.536,12.092,12.092,0,0,0,8.5,3.28,11.083,11.083,0,0,0,8.354-3.344l.057-.063-1.64-1.637-.063.065a8.73,8.73,0,0,1-6.612,2.676,9.568,9.568,0,0,1-6.755-2.638,9.43,9.43,0,0,1,0-13.216A9.568,9.568,0,0,1,611.069,116.666Z" transform="translate(-513.308 -114.364)" fill="#de3726"/>
      <path id="Path_4516" data-name="Path 4516" d="M697.591,117.44h7.934v20.473h2.565V117.44h7.934V115.2H697.591Z" transform="translate(-589.093 -115.009)" fill="#de3726"/>
      <rect id="Rectangle_1304" data-name="Rectangle 1304" width="2.565" height="22.711" transform="translate(132.594 0.193)" fill="#de3726"/>
      <path id="Path_4517" data-name="Path 4517" d="M849.661,134.643,841.1,115.255l-.023-.053H838.3l10.054,22.658.023.053h2.47L860.924,115.2H858.31Z" transform="translate(-697.341 -115.009)" fill="#de3726"/>
      <path id="Path_4518" data-name="Path 4518" d="M963.91,135.675v-8.191h11.675v-2.206H963.91V117.44H977V115.2H961.345v22.711h16.143v-2.238Z" transform="translate(-792 -115.009)" fill="#de3726"/>
      <path id="Path_4519" data-name="Path 4519" d="M244.2,115.2h-3.474l-10.873,10.123V115.2h-2.565v22.711h2.565V127.786l10.872,10.122h3.733L232.13,126.431Z" transform="translate(-227.286 -115.004)" fill="#de3726"/>
    </g>
    <g id="Group_2881" data-name="Group 2881" transform="translate(0 0.193)">
      <path id="Path_4520" data-name="Path 4520" d="M93.638,154.375h0V115.2h0L72.6,134.79Z" transform="translate(-70.775 -115.203)" fill="#de3726"/>
      <path id="Path_4521" data-name="Path 4521" d="M64.682,213.728v16.486H82.389Z" transform="translate(-64.682 -191.042)" fill="#de3726"/>
      <path id="Path_4522" data-name="Path 4522" d="M82.39,115.2H64.682V131.69Z" transform="translate(-64.682 -115.203)" fill="#de3726"/>
    </g>
  </g>
</svg>
