<svg xmlns="http://www.w3.org/2000/svg" width="13.27" height="13.27" viewBox="0 0 13.27 13.27">
  <g id="instagram" transform="translate(-908.121 -388.212)">
    <path id="Path_4235" data-name="Path 4235" d="M918.826,388.212h-8.14a2.568,2.568,0,0,0-2.565,2.564v8.141a2.567,2.567,0,0,0,2.565,2.564h8.14a2.567,2.567,0,0,0,2.564-2.564v-8.141A2.567,2.567,0,0,0,918.826,388.212Zm.736,1.53h.293v2.249l-2.242.007-.008-2.249Zm-6.7,3.743a2.331,2.331,0,1,1-.442,1.362A2.331,2.331,0,0,1,912.863,393.485Zm7.235,5.432a1.272,1.272,0,0,1-1.272,1.271h-8.14a1.272,1.272,0,0,1-1.272-1.271v-5.432H911.4a3.628,3.628,0,1,0,6.722,0H920.1Z" fill="#fff"/>
  </g>
</svg>
