<svg xmlns="http://www.w3.org/2000/svg" width="15.026" height="16.981" viewBox="0 0 15.026 16.981">
  <g id="Group_2959" data-name="Group 2959" transform="translate(-1611.474 -40)">
    <g id="Path_4523" data-name="Path 4523" transform="translate(1611.474 45.5) rotate(-30)" fill="none">
      <path d="M5.5,0A5.5,5.5,0,1,1,0,5.5,5.5,5.5,0,0,1,5.5,0Z" stroke="none"/>
      <path d="M 5.5 1.5 C 3.294390201568604 1.5 1.5 3.294390201568604 1.5 5.5 C 1.5 7.705610275268555 3.294390201568604 9.5 5.5 9.5 C 7.705610275268555 9.5 9.5 7.705610275268555 9.5 5.5 C 9.5 3.294390201568604 7.705610275268555 1.5 5.5 1.5 M 5.5 0 C 8.537569999694824 0 11 2.462430000305176 11 5.5 C 11 8.537569999694824 8.537569999694824 11 5.5 11 C 2.462430000305176 11 0 8.537569999694824 0 5.5 C 0 2.462430000305176 2.462430000305176 0 5.5 0 Z" stroke="none" fill="#242424"/>
    </g>
    <line id="Line_16" data-name="Line 16" y2="5.5" transform="translate(1621.487 51.843) rotate(-30)" fill="none" stroke="#242424" stroke-width="1.5"/>
  </g>
</svg>
