<svg id="surge-logo" xmlns="http://www.w3.org/2000/svg" width="171.295" height="43.906" viewBox="0 0 171.295 43.906">
  <g id="Group_2692" data-name="Group 2692" transform="translate(44.655 38.227)">
    <path id="Path_4375" data-name="Path 4375" d="M346.421,311.5v1.68h2.667v.868h-2.667v2.114H345.4v-5.52h4.03v.859Z" transform="translate(-345.397 -310.561)" fill="#fff"/>
    <path id="Path_4376" data-name="Path 4376" d="M357.594,313.755V310.64h1.025v3.075c0,1.136.512,1.625,1.4,1.625s1.4-.489,1.4-1.625V310.64h1.009v3.115a2.418,2.418,0,1,1-4.835,0Z" transform="translate(-350.848 -310.561)" fill="#fff"/>
    <path id="Path_4377" data-name="Path 4377" d="M377.106,310.64v5.52h-.844l-3.043-3.738v3.738H372.2v-5.52h.844l3.043,3.738V310.64Z" transform="translate(-357.376 -310.561)" fill="#fff"/>
    <path id="Path_4378" data-name="Path 4378" d="M386.164,313.337a2.988,2.988,0,0,1,5.143-1.916l-.663.623a1.938,1.938,0,0,0-1.475-.648,1.941,1.941,0,1,0,0,3.881,1.919,1.919,0,0,0,1.475-.655l.663.631a2.987,2.987,0,0,1-5.143-1.916Z" transform="translate(-363.616 -310.498)" fill="#fff"/>
    <path id="Path_4379" data-name="Path 4379" d="M400.02,311.508h-1.83v-.868h4.685v.868h-1.83v4.652H400.02Z" transform="translate(-368.991 -310.561)" fill="#fff"/>
    <path id="Path_4380" data-name="Path 4380" d="M411.046,310.64h1.024v5.52h-1.024Z" transform="translate(-374.737 -310.561)" fill="#fff"/>
    <path id="Path_4381" data-name="Path 4381" d="M417.869,313.337a2.977,2.977,0,1,1,2.973,2.839A2.827,2.827,0,0,1,417.869,313.337Zm4.915,0a1.94,1.94,0,1,0-1.941,1.94A1.882,1.882,0,0,0,422.784,313.337Z" transform="translate(-377.786 -310.498)" fill="#fff"/>
    <path id="Path_4382" data-name="Path 4382" d="M438.48,310.64v5.52h-.844l-3.043-3.738v3.738h-1.018v-5.52h.845l3.043,3.738V310.64Z" transform="translate(-384.805 -310.561)" fill="#fff"/>
    <path id="Path_4383" data-name="Path 4383" d="M450.773,314.882h-2.759l-.545,1.278h-1.056l2.484-5.52h1.009l2.492,5.52h-1.072Zm-.338-.8-1.04-2.414-1.034,2.414Z" transform="translate(-390.543 -310.561)" fill="#fff"/>
    <path id="Path_4384" data-name="Path 4384" d="M461.135,310.64h1.024v4.653h2.888v.867h-3.911Z" transform="translate(-397.122 -310.561)" fill="#fff"/>
    <path id="Path_4385" data-name="Path 4385" d="M478.852,311.508h-1.83v-.868h4.685v.868h-1.829v4.652h-1.026Z" transform="translate(-404.223 -310.561)" fill="#fff"/>
    <path id="Path_4386" data-name="Path 4386" d="M493.273,316.16l-1.128-1.617a1.792,1.792,0,0,1-.212.008h-1.246v1.609h-1.026v-5.52h2.272c1.452,0,2.349.741,2.349,1.963a1.764,1.764,0,0,1-1.175,1.743l1.27,1.814Zm-1.387-4.652h-1.2v2.2h1.2c.9,0,1.364-.411,1.364-1.105S492.785,311.508,491.886,311.508Z" transform="translate(-409.871 -310.561)" fill="#fff"/>
    <path id="Path_4387" data-name="Path 4387" d="M505.592,314.882h-2.761l-.543,1.278H501.23l2.486-5.52h1.009l2.492,5.52h-1.073Zm-.338-.8-1.042-2.414-1.032,2.414Z" transform="translate(-415.042 -310.561)" fill="#fff"/>
    <path id="Path_4388" data-name="Path 4388" d="M516.239,310.64h1.024v5.52h-1.024Z" transform="translate(-421.749 -310.561)" fill="#fff"/>
    <path id="Path_4389" data-name="Path 4389" d="M529.324,310.64v5.52h-.844l-3.043-3.738v3.738h-1.018v-5.52h.844l3.043,3.738V310.64Z" transform="translate(-425.405 -310.561)" fill="#fff"/>
    <path id="Path_4390" data-name="Path 4390" d="M539.949,310.64h1.026v5.52h-1.026Z" transform="translate(-432.346 -310.561)" fill="#fff"/>
    <path id="Path_4391" data-name="Path 4391" d="M552.964,310.64v5.52h-.844l-3.043-3.738v3.738h-1.017v-5.52h.844l3.043,3.738V310.64Z" transform="translate(-435.97 -310.561)" fill="#fff"/>
    <path id="Path_4392" data-name="Path 4392" d="M566.115,313.273h.969v2.2a3.488,3.488,0,0,1-2.16.7,2.842,2.842,0,1,1,.016-5.678,2.85,2.85,0,0,1,2.215.9l-.647.632a2.047,2.047,0,0,0-1.521-.632,1.941,1.941,0,1,0-.008,3.881,2.234,2.234,0,0,0,1.135-.284Z" transform="translate(-442.179 -310.498)" fill="#fff"/>
  </g>
  <g id="Group_2693" data-name="Group 2693" transform="translate(42.406 4.894)">
    <path id="Path_4393" data-name="Path 4393" d="M351.949,260.775c-3.447-.63-6.425-1.175-6.425-3.935,0-2.366,2.157-3.723,5.919-3.723a11.748,11.748,0,0,1,6.755,1.96l.1.066,1.463-2.691-.077-.053a15.688,15.688,0,0,0-8.237-2.171c-5.618,0-9.248,2.628-9.248,6.7,0,5.134,4.647,5.963,8.746,6.694,3.352.6,6.246,1.114,6.246,3.726,0,2.44-2.05,3.677-6.1,3.677a13.984,13.984,0,0,1-8.158-2.572l-.094-.074-1.466,2.567-.043.074.066.056c2,1.724,5.811,2.883,9.476,2.883,5.948,0,9.644-2.567,9.644-6.7C360.516,262.341,355.965,261.51,351.949,260.775Z" transform="translate(-341.331 -250.229)" fill="#fff"/>
    <path id="Path_4394" data-name="Path 4394" d="M407.179,262.785c0,5.193-2.9,8.293-7.765,8.293-4.412,0-6.843-2.6-6.843-7.326V250.546h-3.33v13.513c0,6.38,3.6,10.04,9.864,10.04a9.392,9.392,0,0,0,8.206-4.173v3.953h3.2V250.546h-3.329Z" transform="translate(-362.743 -250.371)" fill="#fff"/>
    <path id="Path_4395" data-name="Path 4395" d="M450.712,254.6v-4.2h-3.2v23.333h3.329V261.851c0-5.354,2.8-8.426,7.678-8.426.1,0,.214.009.331.02.135.012.275.024.418.024h.1v-3.241h-.1C455.193,250.229,452.245,251.738,450.712,254.6Z" transform="translate(-388.787 -250.229)" fill="#fff"/>
    <path id="Path_4396" data-name="Path 4396" d="M544.7,250.229c-6.607,0-11.4,4.979-11.4,11.842,0,7,5.033,11.886,12.239,11.886a11.447,11.447,0,0,0,9-3.818l.056-.067-1.894-2.18-.079.09a8.961,8.961,0,0,1-7,3c-5,0-8.6-3.144-8.989-7.838h19.336v-.1c0-.185.012-.368.024-.545.01-.154.019-.3.019-.423C556.01,255.1,551.357,250.229,544.7,250.229Zm0,2.888A7.9,7.9,0,0,1,552.8,260.6H536.631A7.965,7.965,0,0,1,544.7,253.117Z" transform="translate(-427.122 -250.229)" fill="#fff"/>
  </g>
  <path id="Path_4397" data-name="Path 4397" d="M293.513,285.206V241.381H264.658v25.24h3.375a3.335,3.335,0,0,0,.147-2.483,3.274,3.274,0,1,1,3.491,0,3.328,3.328,0,0,0,.147,2.483h3.341l3.247-4.939a2.978,2.978,0,0,0,.481-1.411l.669-8.833h-3.213v4.215h-3.37v-4.215h-1.588v-1.519h1.588V245.7h3.37v4.216h3.328l0-.027a1.37,1.37,0,0,1,.985-1.242,1.331,1.331,0,0,1,1.669,1.186l.006.083h3.325V245.7h3.37v4.216h1.589v1.519h-1.589v4.215h-3.37v-4.215h-3.21l.716,9.469a2.106,2.106,0,0,1-.279,1.218l-6.1,10.532-1.348,7.914H264.658v1.162h10.584l-.395,2.312H264.658v1.161Z" transform="translate(-264.658 -241.381)" fill="#fff"/>
  <path id="Path_4398" data-name="Path 4398" d="M495.535,250.4v4.134a10.574,10.574,0,0,0-9.042-4.31c-6.786,0-11.711,4.669-11.711,11.1,0,6.483,4.925,11.188,11.711,11.188a10.684,10.684,0,0,0,8.909-4.188v1.144c0,5.659-2.677,8.294-8.426,8.294a13.585,13.585,0,0,1-9.031-3.139l-.089-.08-1.65,2.473-.048.073.064.06c2.377,2.248,6.431,3.59,10.842,3.59,7.852,0,11.667-3.816,11.667-11.666V250.4ZM486.8,269.545c-5.091,0-8.646-3.378-8.646-8.214,0-4.812,3.555-8.172,8.646-8.172,5.116,0,8.689,3.36,8.689,8.172C495.49,266.168,491.917,269.545,486.8,269.545Z" transform="translate(-358.566 -245.335)" fill="#fff"/>
</svg>
