<svg id="touir-logo" xmlns="http://www.w3.org/2000/svg" width="136.625" height="43.906" viewBox="0 0 136.625 43.906">
  <g id="Group_2695" data-name="Group 2695" transform="translate(44.211 38.229)">
    <path id="Path_4399" data-name="Path 4399" d="M344.55,313.339a2.987,2.987,0,0,1,5.143-1.916l-.663.623a1.936,1.936,0,0,0-1.475-.647,1.941,1.941,0,1,0,0,3.881,1.919,1.919,0,0,0,1.475-.655l.663.63a2.987,2.987,0,0,1-5.143-1.916Z" transform="translate(-344.55 -310.5)" fill="#fff"/>
    <path id="Path_4400" data-name="Path 4400" d="M359.486,314.216v1.947H358.46v-1.932l-2.169-3.588h1.1L359,313.332l1.633-2.689h1.01Z" transform="translate(-349.797 -310.564)" fill="#fff"/>
    <path id="Path_4401" data-name="Path 4401" d="M368.1,313.339a2.987,2.987,0,0,1,5.143-1.916l-.663.623a1.937,1.937,0,0,0-1.475-.647,1.941,1.941,0,1,0,0,3.881,1.92,1.92,0,0,0,1.475-.655l.663.63a2.987,2.987,0,0,1-5.143-1.916Z" transform="translate(-355.077 -310.5)" fill="#fff"/>
    <path id="Path_4402" data-name="Path 4402" d="M381.886,310.643h1.026V315.3H385.8v.868h-3.911Z" transform="translate(-361.236 -310.564)" fill="#fff"/>
    <path id="Path_4403" data-name="Path 4403" d="M393.058,310.643h1.025v5.52h-1.025Z" transform="translate(-366.229 -310.564)" fill="#fff"/>
    <path id="Path_4404" data-name="Path 4404" d="M406.285,310.643v5.52h-.845l-3.044-3.738v3.738h-1.018v-5.52h.844l3.044,3.738v-3.738Z" transform="translate(-369.948 -310.564)" fill="#fff"/>
    <path id="Path_4405" data-name="Path 4405" d="M419.079,313.276h.97v2.2a3.5,3.5,0,0,1-2.16.7,2.842,2.842,0,1,1,.016-5.678,2.851,2.851,0,0,1,2.216.9l-.647.631a2.05,2.05,0,0,0-1.523-.631,1.941,1.941,0,1,0-.007,3.881,2.226,2.226,0,0,0,1.135-.285Z" transform="translate(-375.997 -310.5)" fill="#fff"/>
    <path id="Path_4406" data-name="Path 4406" d="M434.638,315.516l.355-.8a3.049,3.049,0,0,0,1.821.608c.859,0,1.222-.308,1.222-.718,0-1.191-3.28-.41-3.28-2.461,0-.891.71-1.648,2.224-1.648a3.5,3.5,0,0,1,1.837.489l-.324.8a3.068,3.068,0,0,0-1.522-.434c-.851,0-1.2.331-1.2.749,0,1.175,3.273.41,3.273,2.437,0,.883-.718,1.64-2.232,1.64A3.558,3.558,0,0,1,434.638,315.516Z" transform="translate(-384.812 -310.5)" fill="#fff"/>
    <path id="Path_4407" data-name="Path 4407" d="M447.839,311.51H446.01v-.867h4.684v.867h-1.829v4.653h-1.026Z" transform="translate(-389.894 -310.564)" fill="#fff"/>
    <path id="Path_4408" data-name="Path 4408" d="M458.279,313.758v-3.115H459.3v3.075c0,1.136.513,1.625,1.4,1.625s1.4-.489,1.4-1.625v-3.075h1.01v3.115a2.418,2.418,0,1,1-4.835,0Z" transform="translate(-395.378 -310.564)" fill="#fff"/>
    <path id="Path_4409" data-name="Path 4409" d="M472.743,310.643h2.413a2.771,2.771,0,1,1,0,5.52h-2.413Zm2.366,4.653a1.9,1.9,0,1,0,0-3.785h-1.34V315.3Z" transform="translate(-401.842 -310.564)" fill="#fff"/>
    <path id="Path_4410" data-name="Path 4410" d="M487.435,310.643h1.025v5.52h-1.025Z" transform="translate(-408.408 -310.564)" fill="#fff"/>
    <path id="Path_4411" data-name="Path 4411" d="M494.045,313.339a2.977,2.977,0,1,1,2.973,2.839A2.827,2.827,0,0,1,494.045,313.339Zm4.914,0a1.94,1.94,0,1,0-1.94,1.941A1.881,1.881,0,0,0,498.958,313.339Z" transform="translate(-411.362 -310.5)" fill="#fff"/>
  </g>
  <g id="Group_2696" data-name="Group 2696" transform="translate(41.314 0.013)">
    <path id="Path_4412" data-name="Path 4412" d="M354.031,265.964a5.052,5.052,0,0,1-3.359,1.16c-2.514,0-3.9-1.461-3.9-4.116v-13.7h7.035v-2.845h-7.035V241.4h-3.328v5.056h-4.132v2.845h4.132v13.877c0,4.341,2.5,6.831,6.874,6.831a7.492,7.492,0,0,0,4.95-1.652l.059-.053-1.195-2.437Z" transform="translate(-339.313 -241.405)" fill="#fff"/>
    <path id="Path_4413" data-name="Path 4413" d="M386.575,250.229a11.864,11.864,0,1,0,11.843,11.842A11.474,11.474,0,0,0,386.575,250.229Zm0,20.751c-5.013,0-8.514-3.663-8.514-8.909s3.5-8.909,8.514-8.909c4.986,0,8.469,3.664,8.469,8.909S391.561,270.98,386.575,270.98Z" transform="translate(-355.123 -245.349)" fill="#fff"/>
    <path id="Path_4414" data-name="Path 4414" d="M449.864,262.785c0,5.193-2.9,8.293-7.765,8.293-4.412,0-6.843-2.6-6.843-7.326V250.546h-3.329v13.513c0,6.38,3.6,10.04,9.865,10.04A9.389,9.389,0,0,0,450,269.925v3.953h3.2V250.546h-3.33Z" transform="translate(-380.704 -245.49)" fill="#fff"/>
    <path id="Path_4415" data-name="Path 4415" d="M501.955,250.229c-4.076,0-7.024,1.509-8.557,4.372v-4.2h-3.2v23.333h3.328V261.851c0-5.354,2.8-8.426,7.678-8.426.1,0,.213.009.33.02.135.012.275.024.418.024h.1v-3.241Z" transform="translate(-406.748 -245.349)" fill="#fff"/>
  </g>
  <g id="Group_2697" data-name="Group 2697" transform="translate(0 0)">
    <path id="Path_4416" data-name="Path 4416" d="M269.982,306.166a4.4,4.4,0,0,1,.351.429L285.219,298a21.638,21.638,0,0,0-3.075-4Z" transform="translate(-267.014 -264.898)" fill="#fff"/>
    <path id="Path_4417" data-name="Path 4417" d="M271.118,310.743a4.111,4.111,0,0,1,.21.51l16.618-4.452a21.4,21.4,0,0,0-1.93-4.659Z" transform="translate(-267.521 -268.536)" fill="#fff"/>
    <path id="Path_4418" data-name="Path 4418" d="M271.8,316.027a4.908,4.908,0,0,1,.069.551h17.185a21.572,21.572,0,0,0-.648-5Z" transform="translate(-267.825 -272.753)" fill="#fff"/>
    <path id="Path_4419" data-name="Path 4419" d="M268.464,302.589a4.641,4.641,0,0,1,.429.351l12.163-12.163a21.567,21.567,0,0,0-4-3.074Z" transform="translate(-266.335 -262.083)" fill="#fff"/>
    <path id="Path_4420" data-name="Path 4420" d="M264.615,314.385v3.448h3.448A3.75,3.75,0,0,0,264.615,314.385Z" transform="translate(-264.615 -274.008)" fill="#fff"/>
    <path id="Path_4421" data-name="Path 4421" d="M266.618,300.309a4.376,4.376,0,0,1,.511.208l8.6-14.9a21.34,21.34,0,0,0-4.66-1.93Z" transform="translate(-265.51 -260.29)" fill="#fff"/>
    <path id="Path_4422" data-name="Path 4422" d="M264.615,241.381v17.393a26.723,26.723,0,0,1,26.433,26.432h2.422V241.381Z" transform="translate(-264.615 -241.381)" fill="#fff"/>
    <path id="Path_4423" data-name="Path 4423" d="M264.615,277.569v1.162a22.966,22.966,0,0,1,22.649,22.648h1.161A24.13,24.13,0,0,0,264.615,277.569Z" transform="translate(-264.615 -257.554)" fill="#fff"/>
    <path id="Path_4424" data-name="Path 4424" d="M264.615,299.424a4.409,4.409,0,0,1,.551.07l4.45-16.608a21.587,21.587,0,0,0-5-.648Z" transform="translate(-264.615 -259.641)" fill="#fff"/>
  </g>
</svg>
