<svg id="tribe-logo" xmlns="http://www.w3.org/2000/svg" width="150.782" height="48.334" viewBox="0 0 150.782 48.334">
  <g id="Group_2699" data-name="Group 2699" transform="translate(41.314 0)">
    <path id="Path_4425" data-name="Path 4425" d="M354.117,265.963a5.055,5.055,0,0,1-3.359,1.16c-2.513,0-3.9-1.461-3.9-4.116v-13.7h7.035V246.46h-7.035V241.4h-3.328v5.056H339.4v2.846h4.132v13.877c0,4.34,2.5,6.83,6.874,6.83a7.492,7.492,0,0,0,4.95-1.651l.059-.053-1.194-2.437Z" transform="translate(-339.399 -236.963)" fill="#fff"/>
    <path id="Path_4426" data-name="Path 4426" d="M383.773,254.6v-4.2h-3.2v23.333h3.33V261.849c0-5.354,2.8-8.426,7.677-8.426.1,0,.215.009.332.02.135.012.274.025.417.025h.1v-3.242h-.1C388.256,250.227,385.308,251.736,383.773,254.6Z" transform="translate(-357.802 -240.906)" fill="#fff"/>
    <rect id="Rectangle_1220" data-name="Rectangle 1220" width="3.33" height="23.333" transform="translate(41.945 9.496)" fill="#fff"/>
    <path id="Path_4427" data-name="Path 4427" d="M416.356,233.375a2.325,2.325,0,1,0,2.39,2.258A2.349,2.349,0,0,0,416.356,233.375Z" transform="translate(-372.724 -233.375)" fill="#fff"/>
    <path id="Path_4428" data-name="Path 4428" d="M453.412,242.7a10.2,10.2,0,0,0-8.69,4.335V233.375h-3.328V266.2h3.2v-4.316a10.113,10.113,0,0,0,8.821,4.536c6.735,0,11.623-5,11.623-11.886a11.972,11.972,0,0,0-3.317-8.564A11.588,11.588,0,0,0,453.412,242.7Zm-.22,2.934c4.933,0,8.513,3.747,8.513,8.909s-3.58,8.909-8.513,8.909c-5.013,0-8.514-3.664-8.514-8.909S448.179,245.629,453.192,245.629Z" transform="translate(-384.982 -233.375)" fill="#fff"/>
    <path id="Path_4429" data-name="Path 4429" d="M507.651,250.227c-6.607,0-11.4,4.979-11.4,11.843,0,7,5.033,11.886,12.239,11.886a11.442,11.442,0,0,0,9-3.818l.057-.067-1.894-2.18-.079.09a8.959,8.959,0,0,1-7,3c-5,0-8.6-3.145-8.99-7.839h19.337v-.1c0-.185.013-.367.024-.545.01-.154.019-.3.019-.422C518.966,255.1,514.314,250.227,507.651,250.227Zm0,2.889a7.9,7.9,0,0,1,8.108,7.487H499.587A7.965,7.965,0,0,1,507.651,253.116Z" transform="translate(-409.498 -240.906)" fill="#fff"/>
  </g>
  <g id="Group_2700" data-name="Group 2700" transform="translate(44.211 42.656)">
    <path id="Path_4430" data-name="Path 4430" d="M348.8,313.276h.97v2.2a3.5,3.5,0,0,1-2.16.7,2.842,2.842,0,1,1,.016-5.678,2.852,2.852,0,0,1,2.216.9l-.647.631a2.051,2.051,0,0,0-1.523-.631,1.941,1.941,0,1,0-.008,3.881,2.228,2.228,0,0,0,1.135-.285Z" transform="translate(-344.636 -310.5)" fill="#fff"/>
    <path id="Path_4431" data-name="Path 4431" d="M363.025,316.163l-1.128-1.617a1.826,1.826,0,0,1-.213.008H360.44v1.609h-1.027v-5.52h2.271c1.451,0,2.35.741,2.35,1.963a1.764,1.764,0,0,1-1.175,1.743l1.269,1.814Zm-1.388-4.653h-1.2v2.2h1.2c.9,0,1.364-.411,1.364-1.1S362.536,311.51,361.637,311.51Z" transform="translate(-351.24 -310.564)" fill="#fff"/>
    <path id="Path_4432" data-name="Path 4432" d="M372.181,313.339a2.977,2.977,0,1,1,2.974,2.839A2.828,2.828,0,0,1,372.181,313.339Zm4.914,0a1.94,1.94,0,1,0-1.94,1.941A1.881,1.881,0,0,0,377.095,313.339Z" transform="translate(-356.946 -310.5)" fill="#fff"/>
    <path id="Path_4433" data-name="Path 4433" d="M387.871,313.758v-3.115H388.9v3.075c0,1.136.513,1.625,1.4,1.625s1.4-.489,1.4-1.625v-3.075h1.01v3.115a2.418,2.418,0,1,1-4.834,0Z" transform="translate(-363.958 -310.564)" fill="#fff"/>
    <path id="Path_4434" data-name="Path 4434" d="M407.384,312.606c0,1.215-.9,1.964-2.349,1.964h-1.247v1.593h-1.025v-5.52h2.271C406.485,310.643,407.384,311.384,407.384,312.606Zm-1.033,0c0-.694-.466-1.1-1.364-1.1h-1.2V313.7h1.2C405.886,313.7,406.351,313.3,406.351,312.606Z" transform="translate(-370.614 -310.564)" fill="#fff"/>
    <path id="Path_4435" data-name="Path 4435" d="M426.239,315.3v.859H422.1v-5.52h4.03v.859h-3v1.436h2.666v.843h-2.666V315.3Z" transform="translate(-379.256 -310.564)" fill="#fff"/>
    <path id="Path_4436" data-name="Path 4436" d="M437.319,316.163l-1.5-2.1-1.483,2.1h-1.166l2.051-2.816-1.941-2.7h1.16l1.411,1.963,1.4-1.963h1.113l-1.932,2.665,2.074,2.855Z" transform="translate(-384.204 -310.564)" fill="#fff"/>
    <path id="Path_4437" data-name="Path 4437" d="M451.134,315.3v.859h-4.141v-5.52h4.03v.859h-3v1.436h2.665v.843H448.02V315.3Z" transform="translate(-390.381 -310.564)" fill="#fff"/>
    <path id="Path_4438" data-name="Path 4438" d="M463.146,316.163l-1.128-1.617a1.812,1.812,0,0,1-.212.008h-1.247v1.609h-1.025v-5.52h2.272c1.451,0,2.349.741,2.349,1.963a1.765,1.765,0,0,1-1.175,1.743l1.269,1.814Zm-1.387-4.653h-1.2v2.2h1.2c.9,0,1.364-.411,1.364-1.1S462.657,311.51,461.759,311.51Z" transform="translate(-395.986 -310.564)" fill="#fff"/>
    <path id="Path_4439" data-name="Path 4439" d="M472.087,313.339a2.986,2.986,0,0,1,5.142-1.916l-.663.623a1.935,1.935,0,0,0-1.474-.647,1.941,1.941,0,1,0,0,3.881,1.918,1.918,0,0,0,1.474-.655l.663.63a2.987,2.987,0,0,1-5.142-1.916Z" transform="translate(-401.596 -310.5)" fill="#fff"/>
    <path id="Path_4440" data-name="Path 4440" d="M485.582,310.643h1.025v5.52h-1.025Z" transform="translate(-407.627 -310.564)" fill="#fff"/>
    <path id="Path_4441" data-name="Path 4441" d="M492.493,315.516l.355-.8a3.049,3.049,0,0,0,1.821.608c.859,0,1.222-.308,1.222-.718,0-1.191-3.28-.41-3.28-2.461,0-.891.71-1.648,2.223-1.648a3.494,3.494,0,0,1,1.838.489l-.323.8a3.073,3.073,0,0,0-1.522-.434c-.852,0-1.2.331-1.2.749,0,1.175,3.273.41,3.273,2.437,0,.883-.718,1.64-2.232,1.64A3.558,3.558,0,0,1,492.493,315.516Z" transform="translate(-410.716 -310.5)" fill="#fff"/>
    <path id="Path_4442" data-name="Path 4442" d="M509.43,315.3v.859h-4.14v-5.52h4.03v.859h-3v1.436h2.666v.843h-2.666V315.3Z" transform="translate(-416.435 -310.564)" fill="#fff"/>
  </g>
  <path id="Path_4443" data-name="Path 4443" d="M264.7,241.381v21.2l5.694,9.861H264.7V273.6h5.694l-5.694,9.863v1.742h28.855V241.381Zm19.093,31.059H272.407l5.693-9.861ZM271.4,250.975l5.694,9.862H265.707ZM265.707,262h11.386l-5.692,9.86Zm0,22.046,5.694-9.861,5.694,9.861Zm6.7-10.443h11.386l-5.693,9.861Zm6.7,10.443,5.694-9.861,5.694,9.861Z" transform="translate(-264.701 -236.953)" fill="#fff"/>
</svg>
