<svg xmlns="http://www.w3.org/2000/svg" width="16.293" height="13.242" viewBox="0 0 16.293 13.242">
  <g id="twiter" transform="translate(0)">
    <path id="Path_4234" data-name="Path 4234" d="M16.293,1.568a6.678,6.678,0,0,1-1.92.526,3.352,3.352,0,0,0,1.47-1.85,6.7,6.7,0,0,1-2.123.811A3.344,3.344,0,0,0,7.938,3.343a3.372,3.372,0,0,0,.087.762A9.491,9.491,0,0,1,1.134.612,3.346,3.346,0,0,0,2.169,5.074,3.33,3.33,0,0,1,.655,4.656V4.7A3.344,3.344,0,0,0,3.336,7.976a3.356,3.356,0,0,1-1.51.057,3.346,3.346,0,0,0,3.122,2.322A6.7,6.7,0,0,1,.8,11.786a6.872,6.872,0,0,1-.8-.046,9.462,9.462,0,0,0,5.124,1.5,9.446,9.446,0,0,0,9.511-9.511q0-.218-.01-.432a6.815,6.815,0,0,0,1.668-1.731" transform="translate(0 0)" fill="#fff"/>
  </g>
</svg>
