<svg xmlns="http://www.w3.org/2000/svg" width="17.112" height="12.031" viewBox="0 0 17.112 12.031">
  <g id="youtube" transform="translate(0)">
    <path id="Path_4224" data-name="Path 4224" d="M101.56,51.3v4.806h0V51.3Z" transform="translate(-94.772 -47.871)" fill="none"/>
    <path id="Path_4225" data-name="Path 4225" d="M16.93,2.593A3.7,3.7,0,0,0,16.249.9,2.433,2.433,0,0,0,14.532.174C12.147,0,8.559,0,8.559,0H8.552S4.964,0,2.565.174A2.453,2.453,0,0,0,.848.9a3.744,3.744,0,0,0-.674,1.7A25.651,25.651,0,0,0,0,5.367v1.3A25.447,25.447,0,0,0,.174,9.431a3.7,3.7,0,0,0,.682,1.7,2.859,2.859,0,0,0,1.884.729c1.37.134,5.813.174,5.813.174s3.595-.007,5.987-.18a2.453,2.453,0,0,0,1.717-.722,3.7,3.7,0,0,0,.682-1.7,25.447,25.447,0,0,0,.174-2.767v-1.3A26.911,26.911,0,0,0,16.93,2.593ZM10.848,6.136h0l-4.057,2.1h0V3.429h0l4.625,2.413Z" transform="translate(0 0)" fill="#fff"/>
    <path id="Path_4226" data-name="Path 4226" d="M101.6,51.3h0l.009.005Z" transform="translate(-94.809 -47.871)" fill="#fff"/>
    <path id="Path_4227" data-name="Path 4227" d="M101.6,51.3h0l.009.005Z" transform="translate(-94.809 -47.871)" fill="#fff"/>
    <path id="Path_4228" data-name="Path 4228" d="M101.6,93.879h0l4.057-2.1h0Z" transform="translate(-94.809 -85.645)" fill="#fff"/>
    <path id="Path_4229" data-name="Path 4229" d="M101.6,93.879h0l4.057-2.1h0Z" transform="translate(-94.809 -85.645)" fill="#fff"/>
    <path id="Path_4230" data-name="Path 4230" d="M162.3,87.694l.568-.294Z" transform="translate(-151.452 -81.558)" fill="#fff" opacity="0.12"/>
    <path id="Path_4231" data-name="Path 4231" d="M162.3,87.694l.568-.294Z" transform="translate(-151.452 -81.558)" fill="#fff"/>
    <path id="Path_4232" data-name="Path 4232" d="M101.609,51.307l4.611,2.406-.565.293h0l.568-.294L101.6,51.3Z" transform="translate(-94.809 -47.871)" fill="#fff"/>
    <path id="Path_4233" data-name="Path 4233" d="M101.609,51.307l4.611,2.406-.565.293h0l.568-.294L101.6,51.3Z" transform="translate(-94.809 -47.871)" fill="#fff" opacity="0.12"/>
  </g>
</svg>
